<svg version="1.1" xmlns="http://www.w3.org/2000/svg" xmlns:xlink="http://www.w3.org/1999/xlink" width="78.21583" height="87.62545" viewBox="0,0,78.21583,87.62545"><g transform="translate(-200.87776,-131.71907)"><g data-paper-data="{&quot;isPaintingLayer&quot;:true}" fill-rule="nonzero" stroke-linecap="butt" stroke-linejoin="miter" stroke-miterlimit="10" stroke-dasharray="" stroke-dashoffset="0" style="mix-blend-mode: normal"><path d="M250.25444,133.29299c4.41396,0.69333 8.56952,2.25727 12.43232,4.87967c3.98787,2.70732 4.19263,3.60497 6.61237,7.22373c3.86769,5.7842 7.90245,12.2605 9.13018,19.26585c2.12989,12.15293 -1.10648,24.56331 -6.22548,35.4457c-4.73715,6.51953 -9.84342,13.43322 -17.45921,16.88523c-6.99633,3.17123 -15.12399,2.65444 -22.39411,1.24542c-11.78254,-2.28357 -24.73727,-9.41158 -29.40581,-21.36917c-1.65169,-4.23051 -1.96335,-9.32221 -2.06694,-13.79888c3.50865,-16.08356 13.48119,-30.9983 26.00938,-41.7153c4.52372,-3.86973 9.89899,-6.12838 15.41734,-7.97563c0.63847,-0.45596 1.39949,-0.50325 1.55049,-0.50816c1.11098,-0.35719 2.22507,-0.70236 3.33651,-1.04516c0,0 2.26255,-0.69776 3.06296,1.4667z" fill="#9966ff" stroke="none" stroke-width="0.5"/><path d="M227.88419,156.23546c6.51169,0 11.79047,5.11142 11.79047,11.41667c0,6.30525 -5.27877,11.41667 -11.79047,11.41667c-6.51169,0 -11.79047,-5.11142 -11.79047,-11.41667c0,-6.30525 5.27877,-11.41667 11.79047,-11.41667z" fill="#06040a" stroke="#000000" stroke-width="2"/><path d="M256.72905,157.31759c6.51169,0 11.79047,5.11142 11.79047,11.41667c0,6.30525 -5.27877,11.41667 -11.79047,11.41667c-6.51169,0 -11.79047,-5.11142 -11.79047,-11.41667c0,-6.30525 5.27877,-11.41667 11.79047,-11.41667z" fill="#06040a" stroke="#000000" stroke-width="2"/><path d="M253.95819,159.0527c4.02393,0 7.28598,3.15863 7.28598,7.05499c0,3.89637 -3.26204,7.05499 -7.28598,7.05499c-4.02393,0 -7.28598,-3.15863 -7.28598,-7.05499c0,-3.89637 3.26205,-7.05499 7.28598,-7.05499z" fill="#ffffff" stroke="#000000" stroke-width="2"/><path d="M225.31407,156.3802c4.02393,0 7.28598,3.15863 7.28598,7.05499c0,3.89637 -3.26204,7.05499 -7.28598,7.05499c-4.02393,0 -7.28598,-3.15863 -7.28598,-7.05499c0,-3.89637 3.26205,-7.05499 7.28598,-7.05499z" fill="#fafafa" stroke="#000000" stroke-width="2"/><path d="M246.44802,196.91575c-3.69522,-0.52076 -7.44227,-0.73099 -11.17315,-0.73099c-1.54441,0 -4.48706,-0.51472 -5.86855,0.4474c-0.57534,0.40069 1.16638,0.80389 1.82355,1.04825c0.95242,0.35414 1.91099,0.69688 2.88862,0.9739c4.24653,1.2033 7.51272,0.41524 11.6646,-0.83448zM249.87198,196.65515c0.07824,0.06994 0.15638,0.14681 0.23422,0.23112c1.6958,1.83691 -0.14111,3.53272 -0.14111,3.53272l-2.74623,2.19027c-6.08717,1.81795 -12.17484,2.7166 -18.11148,-0.4017c-3.16967,-1.66492 -6.19261,-3.29128 -4.16701,-7.82377c1.37815,-3.08376 5.03399,-3.03764 7.6167,-3.1968c5.31869,-0.32778 10.87011,0.16575 16.11251,1.0095c0,0 2.46774,0.4003 2.06744,2.86804c-0.12749,0.78592 -0.46467,1.28094 -0.86505,1.59063z" fill="#000000" stroke="none" stroke-width="0.5"/></g></g></svg>