<svg version="1.1" xmlns="http://www.w3.org/2000/svg" xmlns:xlink="http://www.w3.org/1999/xlink" width="110.06359" height="68.80992" viewBox="0,0,110.06359,68.80992"><g transform="translate(-184.9682,-145.59504)"><g data-paper-data="{&quot;isPaintingLayer&quot;:true}" fill-rule="nonzero" stroke="none" stroke-width="0.5" stroke-linecap="butt" stroke-linejoin="miter" stroke-miterlimit="10" stroke-dasharray="" stroke-dashoffset="0" style="mix-blend-mode: normal"><path d="M188.80721,165.9068c3.43069,0.02681 7.05727,0.34399 10.45069,0.00959c2.53142,-0.24946 4.85388,-1.7274 7.28187,-2.44283c7.29664,-2.15001 14.10497,-5.95564 21.34678,-8.23024c20.92397,-4.9728 44.7775,-11.59146 65.40373,-2.06242c0.51405,1.17189 1.23215,2.27411 1.54213,3.51568c0.93497,3.74495 -1.60481,6.94608 -3.73606,9.48067c-0.63605,0.75642 -0.96386,1.75644 -1.66415,2.45382c-0.72522,0.72222 -1.726,1.10526 -2.53687,1.72979c-5.42341,4.17704 -11.69029,7.31711 -16.69378,12.01106c-4.2764,4.01185 -7.10164,9.00295 -11.31012,13.03268c-1.56103,1.61531 -3.49208,3.77959 -5.28935,5.10036c-2.9378,2.15892 -6.93438,3.48254 -10.2409,4.79173c-3.73545,1.47903 -6.63649,4.79706 -10.21039,6.59413c-8.75277,4.40117 -21.25878,2.41245 -29.80935,-1.28442c-4.38274,-1.77683 -9.80884,-4.08239 -13.34427,-7.34408c-4.9913,-4.60483 -5.97365,-13.81133 -4.23088,-20.02957c0.47363,-1.68992 1.69004,-3.07721 2.48155,-4.64362c1.35035,-2.67236 1.90987,-5.82323 2.9271,-8.69459c-0.96215,-0.03872 -1.90439,-0.07018 -2.81072,-0.07018l0.19577,-1.95967l-0.19577,-1.95967c0.13016,0 0.26064,0.00049 0.3914,0.0014l0.00013,-0.0014c0,0 0.01833,0 0.05146,0.00177z" fill="#ff455b"/><path d="M215.49993,159.74301c-4.64491,0.8012 -9.56905,1.60563 -13.27641,4.59208c-1.90474,1.53436 -1.74995,1.85089 -3.01012,3.61998c-3.60635,5.06279 -6.18391,9.79281 -5.84134,16.15544c4.30133,9.93301 13.70899,13.95585 23.7186,16.62652c8.13077,2.16938 16.25471,3.64565 24.09035,-0.77766c2.11383,-1.19328 3.68036,-3.1499 5.43606,-4.78081c4.08004,-6.12376 6.35567,-13.19697 10.27375,-19.449c0.84677,-1.35118 1.67435,-2.77217 2.87002,-3.82718c2.37003,-2.09123 5.82278,-4.03003 8.81792,-4.94948c2.9048,-0.89172 6.6204,-1.13766 9.31887,-2.56196c1.27435,-0.67262 2.1764,-1.88919 3.27203,-2.82512c0.44557,-0.45363 1.01959,-0.80974 1.33668,-1.36088c1.53249,-2.66368 -1.36135,-4.34703 -3.05026,-5.62697c-2.22558,-1.68665 -4.77395,-3.18739 -7.49227,-3.96015c-3.86068,-1.09751 -7.60094,-0.96224 -11.55803,-0.96201c-3.54796,0.0002 -7.26402,-0.32226 -10.79593,-0.00742c-3.57076,0.31831 -7.12279,1.56828 -10.50676,2.68021c-3.16394,0.94612 -6.43897,1.91015 -9.54918,3.05648c0.00014,0.00208 0.00028,0.00415 0.00042,0.00622c0.13222,1.9552 -1.82299,2.08742 -1.82299,2.08742c-1.35006,0.08788 -2.66745,0.29903 -3.97495,0.56111c-1.54939,0.79005 -3.10663,1.56542 -4.75341,2.15206l-1.35169,0.35907c0,0 -1.46006,0.37998 -2.1514,-0.80796zM222.52873,154.30733c1.59385,-0.81819 3.18135,-1.65026 4.85603,-2.29412c3.40615,-1.30953 7.04662,-2.37661 10.54484,-3.42416c3.6615,-1.20259 7.47808,-2.49522 11.33974,-2.84519c3.64547,-0.33038 7.47501,-0.00762 11.13649,-0.00742c5.40323,0.00031 10.19584,0.13174 15.25765,2.23843c5.25174,2.18573 13.90214,6.98549 10.31752,14.04341c-0.47641,0.93803 -1.39224,1.57769 -2.08837,2.36655c-0.38978,0.33492 -3.76226,3.25844 -4.09916,3.43643c-1.81023,0.95642 -3.5515,1.04809 -5.44005,1.58905c-4.27559,1.22471 -8.54343,2.45382 -12.0063,5.43698c-1.89959,1.63645 -3.25427,4.49741 -4.40404,6.68694c-2.83941,5.40713 -4.88868,11.11013 -8.34134,16.18463c-2.08492,1.97407 -3.95102,4.20729 -6.48198,5.64675c-8.71831,4.95848 -17.92271,3.59371 -27.04003,1.15812c-7.63049,-2.03839 -16.52733,-5.17689 -21.87713,-11.32639c-2.10984,-2.42523 -3.44709,-5.24106 -4.64586,-8.18996c-0.57207,-7.58469 2.12482,-13.24676 6.452,-19.3087c1.93129,-2.70554 3.77767,-4.82599 6.83521,-6.36666c4.68641,-2.36145 9.71724,-2.94211 14.77077,-3.95836c1.6572,-0.33325 3.28134,-0.72692 4.91403,-1.06635z" fill="#ff455b"/><path d="M217.62017,160.5272l1.35277,-0.36043c1.64678,-0.58664 3.20974,-1.3676 4.75914,-2.15764c1.3075,-0.26208 2.63018,-0.47677 3.98024,-0.56465c0,0 1.95931,-0.1342 1.82709,-2.0894c-0.00014,-0.00208 -0.00028,-0.00415 -0.00042,-0.00622c3.11022,-1.14632 6.40179,-2.1133 9.56573,-3.05941c3.38397,-1.11193 6.94997,-2.3587 10.52073,-2.67702c3.53191,-0.31486 7.25762,0.01357 10.80558,0.01336c3.95708,-0.00022 7.70343,-0.1291 11.56409,0.96841c2.71832,0.77277 5.27014,2.27897 7.49572,3.96562c1.68891,1.27994 4.58489,2.96816 3.0524,5.63185c-0.31709,0.55114 -0.89088,0.90792 -1.33645,1.36155c-1.09563,0.93595 -1.99722,2.15396 -3.27157,2.82659c-2.69847,1.4243 -6.41413,1.67001 -9.31893,2.56173c-2.99514,0.91945 -6.44695,2.86203 -8.81699,4.95326c-1.19567,1.05502 -2.02252,2.48267 -2.86929,3.83385c-3.91808,6.25203 -6.21693,13.36196 -10.29697,19.48572c-1.7557,1.63091 -3.33323,3.5906 -5.44706,4.78388c-7.83565,4.42331 -15.99006,2.93792 -24.12082,0.76855c-10.00961,-2.67067 -19.43037,-6.71642 -23.7317,-16.64943c-0.34257,-6.36263 2.23523,-11.10758 5.84158,-16.17038c1.26017,-1.76909 1.10649,-2.08979 3.01124,-3.62415c3.70736,-2.98645 8.637,-3.80164 13.28191,-4.60283c0.69135,1.18794 2.15195,0.80721 2.15195,0.80721z" data-paper-data="{&quot;noHover&quot;:false,&quot;origItem&quot;:[&quot;Path&quot;,{&quot;applyMatrix&quot;:true,&quot;segments&quot;:[[[414.72652,335.88325],[1.76393,3.03095],[-11.85126,2.04422]],[[380.85243,347.59971],[9.45914,-7.61978],[-4.85985,3.91484]],[[373.17228,356.83592],[3.21525,-4.51374],[-9.20142,12.91746]],[[358.26839,398.0557],[-0.87405,-16.23393],[10.97462,25.34358]],[[418.78521,440.47741],[-25.53901,-6.81408],[20.74524,5.53505]],[[480.25054,438.49325],[-19.99225,11.28585],[5.39333,-3.0446]],[[494.12038,426.29526],[-4.47959,4.16118],[10.41001,-15.62446]],[[520.33333,376.67212],[-9.99678,15.95174],[2.16049,-3.44747]],[[527.65605,366.90726],[-3.05071,2.69183],[6.04703,-5.33566]],[[550.15454,354.2789],[-7.64195,2.34594],[7.41146,-2.27518]],[[573.93115,347.7422],[-6.88499,3.63402],[3.25144,-1.71617]],[[582.27957,340.53404],[-2.79544,2.38801],[1.13683,-1.15741]],[[585.69005,337.06182],[-0.80903,1.40621],[3.91007,-6.79625]],[[577.90747,322.7049],[4.30916,3.26569],[-5.67846,-4.30341]],[[558.79133,312.60078],[6.93567,1.97167],[-9.85031,-2.80024]],[[529.30162,310.14625],[10.0963,-0.00057],[-9.05244,0.00051]],[[501.75633,310.12734],[9.01151,-0.80334],[-9.11061,0.81217]],[[474.94886,316.96575],[8.63402,-2.83704],[-8.07264,2.41398]],[[450.5846,324.7642],[7.93557,-2.92479],[0.00037,0.00529]],[[450.58569,324.78008],[-0.00036,-0.0053],[0.33734,4.98861]],[[445.93443,330.10603],[0,0],[-3.44461,0.22422]],[[435.79255,331.53767],[3.33602,-0.66868],[-3.9532,2.01575]],[[423.66446,337.02855],[4.20169,-1.49678],[0,0]],[420.2157,337.9447]],&quot;closed&quot;:true}]}" fill="#ff7080"/><path d="M227.94848,175.04987l1.18177,0.07734c2.95109,1.33228 5.96053,2.57851 5.64048,6.52244c-0.08581,1.05737 -0.79177,1.96841 -1.18765,2.95261c-6.16526,4.65571 -16.05067,6.2856 -22.91596,1.57995c-0.9811,-0.67248 -1.93245,-1.48998 -2.52519,-2.5212c-3.17424,-5.52237 2.51995,-9.94109 7.31271,-10.76781c3.34556,-0.57709 7.1853,-0.28275 10.57832,-0.28275c0,0 1.95967,0 1.95967,1.95967c0,0.17509 -0.01565,0.33454 -0.04414,0.47974z" fill="#ffffff"/></g></g></svg>