<svg version="1.1" xmlns="http://www.w3.org/2000/svg" xmlns:xlink="http://www.w3.org/1999/xlink" width="78.21583" height="87.62545" viewBox="0,0,78.21583,87.62545"><g transform="translate(-200.87776,-131.71907)"><g data-paper-data="{&quot;isPaintingLayer&quot;:true}" fill-rule="nonzero" stroke-linecap="butt" stroke-linejoin="miter" stroke-miterlimit="10" stroke-dasharray="" stroke-dashoffset="0" style="mix-blend-mode: normal"><path d="M250.25444,133.29299c4.41396,0.69333 8.56952,2.25727 12.43232,4.87967c3.98787,2.70732 4.19263,3.60497 6.61237,7.22373c3.86769,5.7842 7.90245,12.2605 9.13018,19.26585c2.12989,12.15293 -1.10648,24.56331 -6.22548,35.4457c-4.73715,6.51953 -9.84342,13.43322 -17.45921,16.88523c-6.99633,3.17123 -15.12399,2.65444 -22.39411,1.24542c-11.78254,-2.28357 -24.73727,-9.41158 -29.40581,-21.36917c-1.65169,-4.23051 -1.96335,-9.32221 -2.06694,-13.79888c3.50865,-16.08356 13.48119,-30.9983 26.00938,-41.7153c4.52372,-3.86973 9.89899,-6.12838 15.41734,-7.97563c0.63847,-0.45596 1.39949,-0.50325 1.55049,-0.50816c1.11098,-0.35719 2.22507,-0.70236 3.33651,-1.04516c0,0 2.26255,-0.69776 3.06296,1.4667z" fill="#9966ff" stroke="none" stroke-width="0.5"/><path d="M227.88419,156.23546c6.51169,0 11.79047,5.11142 11.79047,11.41667c0,6.30525 -5.27877,11.41667 -11.79047,11.41667c-6.51169,0 -11.79047,-5.11142 -11.79047,-11.41667c0,-6.30525 5.27877,-11.41667 11.79047,-11.41667z" fill="#06040a" stroke="#000000" stroke-width="2"/><path d="M256.72905,157.31759c6.51169,0 11.79047,5.11142 11.79047,11.41667c0,6.30525 -5.27877,11.41667 -11.79047,11.41667c-6.51169,0 -11.79047,-5.11142 -11.79047,-11.41667c0,-6.30525 5.27877,-11.41667 11.79047,-11.41667z" fill="#06040a" stroke="#000000" stroke-width="2"/><path d="M253.95819,159.0527c4.02393,0 7.28598,3.15863 7.28598,7.05499c0,3.89637 -3.26204,7.05499 -7.28598,7.05499c-4.02393,0 -7.28598,-3.15863 -7.28598,-7.05499c0,-3.89637 3.26205,-7.05499 7.28598,-7.05499z" fill="#ffffff" stroke="#000000" stroke-width="2"/><path d="M225.31407,156.3802c4.02393,0 7.28598,3.15863 7.28598,7.05499c0,3.89637 -3.26204,7.05499 -7.28598,7.05499c-4.02393,0 -7.28598,-3.15863 -7.28598,-7.05499c0,-3.89637 3.26205,-7.05499 7.28598,-7.05499z" fill="#fafafa" stroke="#000000" stroke-width="2"/><path d="M224.42444,192.16422c0.07515,0 0.14805,0.00226 0.21875,0.00664c-0.04382,-0.16297 -0.07608,-0.34124 -0.09451,-0.53622c-0.23529,-2.4889 2.25362,-2.72419 2.25362,-2.72419c2.1842,-0.18851 4.24674,-1.0937 6.38534,-1.57607c4.0288,-0.90872 9.12633,-0.57781 13.2551,-0.39289c1.33945,0.05999 2.72775,-0.0671 4.00899,0.32809c0.99145,0.3058 1.72621,1.15185 2.60049,1.71053c2.42798,1.55154 7.00927,4.54997 6.16952,8.3c-0.3092,1.38078 -4.49805,5.31213 -5.87569,6.21654c-5.16363,3.38988 -10.4392,4.11524 -16.39295,4.11524c-7.23587,-0.03361 -13.53481,-3.64835 -14.9944,-11.06601l-0.03426,-1.88165c0,0 0,-2.5 2.5,-2.5zM226.79431,193.87889c0.13013,0.43679 0.13013,0.78532 0.13013,0.78532l-0.03426,1.05673c0.5915,4.97827 5.58293,6.91599 10.06292,6.89093c5.03616,0 9.24944,-0.43502 13.66116,-3.303c1.31505,-0.85489 2.90508,-1.5633 3.68799,-2.92244c0.14267,-0.24768 -0.45905,-0.34569 -0.65349,-0.5552c-1.18547,-1.27735 -3.13057,-3.31791 -4.84139,-3.8398c-1.81895,-0.55488 -3.80318,-0.05137 -5.70488,-0.05102c-2.78503,0.00051 -6.03621,-0.38921 -8.76114,0.25903c-2.35671,0.56064 -4.65832,1.4448 -7.06848,1.6888c0,0 -0.19389,0.01833 -0.47856,-0.00936z" fill="#000000" stroke="none" stroke-width="0.5"/></g></g></svg>